<svg width="1027" height="1027" viewBox="0 0 1027 1027" fill="none" xmlns="http://www.w3.org/2000/svg">
<rect width="1024" height="1024" transform="translate(0 3)" fill="white"/>
<path d="M97.1216 3.00072C165.212 164.518 314.59 513.417 514.111 512.889" stroke="#CC5653" stroke-width="15"/>
<path d="M931.101 2.99999C863.01 164.518 713.633 513.417 514.111 512.889" stroke="#CC5653" stroke-width="15"/>
<path d="M931.101 1022.78C863.01 861.26 713.633 512.361 514.111 512.889" stroke="#427EBA" stroke-width="15"/>
<path d="M97.1218 1022.78C165.212 861.261 314.59 512.362 514.111 512.89" stroke="#427EBA" stroke-width="15"/>
<path d="M1024 96.9546C862.482 165.045 513.583 314.423 514.111 513.944" stroke="#4D9859" stroke-width="15"/>
<path d="M1024 96.9546C862.482 165.045 513.583 314.423 514.111 513.944" stroke="#4D9859" stroke-width="15"/>
<path d="M1024 930.934C862.483 862.843 513.584 713.466 514.112 513.944" stroke="#4D9859" stroke-width="15"/>
<path d="M1024 930.934C862.483 862.843 513.584 713.466 514.112 513.944" stroke="#4D9859" stroke-width="15"/>
<path d="M4.22326 96.9546C165.741 165.045 514.64 314.423 514.112 513.944" stroke="#7055AF" stroke-width="15"/>
<path d="M4.22265 930.934C165.74 862.843 514.639 713.466 514.111 513.944" stroke="#7055AF" stroke-width="15"/>
<rect y="3" width="1024" height="1024" fill="url(#paint0_radial_1_64)"/>
<defs>
<radialGradient id="paint0_radial_1_64" cx="0" cy="0" r="1" gradientUnits="userSpaceOnUse" gradientTransform="translate(512 515) rotate(90) scale(605.284)">
<stop stop-color="#D9D9D9" stop-opacity="0"/>
<stop offset="0.769828" stop-color="white" stop-opacity="0"/>
<stop offset="1" stop-color="white"/>
</radialGradient>
</defs>
</svg>
